# xmcd
#
# Track frame offsets:
#	150
#	16359
#	35498
#	51691
#	65737
#	82528
#	95524
#	110947
#	125054
#	140144
#	154625
#	172350
#	185924
#	201936
#	215186
#	231747
#	245450
#	262451
#	278542
#	297250
#	312869
#	329950
#
# Disc length: 4623 seconds
#
# Revision: 1
# Processed by: cddbd v1.5.2PL0 Copyright (c) Steve Scherf et al.
# Submitted via: audiograbber 1.83.01
#
DISCID=7a120d16
DTITLE=William Ray - Homecomming Day
DYEAR=2015
DGENRE=Country 
TTITLE0=Homecomming Day
TTITLE1=Rosies Bar
TTITLE2=Cold Shoulders
TTITLE3=Lady Luck´sA A Woman
TTITLE4=Love In Her Heart
TTITLE5=Lotta Lovin´ Going Round
TTITLE6=Hot Day In Houston
TTITLE7=The Ghot Of Hank
TTITLE8=Load On My Mind
TTITLE9=I Lost It All On Wall Street
TTITLE10=Never Been I Love Before
TTITLE11=Start Waitin Early For You
TTITLE12=Ive Lived A Lifetime Lovin´ You
TTITLE13=Longevity
TTITLE14=Time Keep´s Rollin´ Around
TTITLE15=What Happend In Vegas
TTITLE16=Cadillac Cowboy
TTITLE17=Lemme´ Tell Ya´ What I Did
TTITLE18=Life Was Good When I Was Young
TTITLE19=Patriotic Train
TTITLE20=Live Until I Die
TTITLE21=Ballad Of Ringo Flamingo
EXTD=
EXTT0=
EXTT1=
EXTT2=
EXTT3=
EXTT4=
EXTT5=
EXTT6=
EXTT7=
EXTT8=
EXTT9=
EXTT10=
EXTT11=
EXTT12=
EXTT13=
EXTT14=
EXTT15=
EXTT16=
EXTT17=
EXTT18=
EXTT19=
EXTT20=
EXTT21=
PLAYORDER=
